<svg xmlns="http://www.w3.org/2000/svg" width="50" height="50" viewBox="0 0 50 50" fill="none">
  <title>Code of Conduct</title>
  <rect width="50" height="50" rx="8" fill="white"/>
  <g fill="#111" fill-rule="evenodd" clip-rule="evenodd">
    <!-- Shield -->
    <path d="M25 8c-3.9 2.4-7.1 3.2-10 3.8v12.2c0 7.7 5.8 13.4 10 15.7 4.2-2.3 10-8 10-15.7V11.8C32.1 11.2 28.9 10.4 25 8zM17 14.7c2.4-.6 5.1-1.4 8-2.9 2.9 1.5 5.6 2.3 8 2.9v9.3c0 5.5-4.2 9.9-8 12.2-3.8-2.3-8-6.7-8-12.2v-9.3z"/>
    <!-- Checkmark -->
    <path d="M21.4 25.9l-2.6-2.6-2.1 2.1 4.7 4.7 9.1-9.1-2.1-2.1-7 7z"/>
  </g>
</svg>
